<mxfile host="Electron" agent="Mozilla/5.0 (Windows NT 10.0; Win64; x64) AppleWebKit/537.36 (KHTML, like Gecko) draw.io/24.7.8 Chrome/128.0.6613.36 Electron/32.0.1 Safari/537.36" version="24.7.8">
  <diagram name="Página-1" id="qBIl0i3Tgtyagl_yFDEk">
    <mxGraphModel dx="1050" dy="621" grid="1" gridSize="10" guides="1" tooltips="1" connect="1" arrows="1" fold="1" page="1" pageScale="1" pageWidth="827" pageHeight="1169" math="0" shadow="0">
      <root>
        <mxCell id="0" />
        <mxCell id="1" parent="0" />
        <object label="Usuário" Usuário="" id="NZdatJUdCUIzOeaMkChF-2">
          <mxCell style="shape=umlActor;verticalLabelPosition=bottom;verticalAlign=top;html=1;outlineConnect=0;" parent="1" vertex="1">
            <mxGeometry x="140" y="145" width="30" height="60" as="geometry" />
          </mxCell>
        </object>
        <mxCell id="NZdatJUdCUIzOeaMkChF-13" style="edgeStyle=orthogonalEdgeStyle;rounded=0;orthogonalLoop=1;jettySize=auto;html=1;entryX=0.5;entryY=0.5;entryDx=0;entryDy=0;entryPerimeter=0;" parent="1" source="NZdatJUdCUIzOeaMkChF-5" target="NZdatJUdCUIzOeaMkChF-2" edge="1">
          <mxGeometry relative="1" as="geometry" />
        </mxCell>
        <object label="Administrador" Usuário="" id="NZdatJUdCUIzOeaMkChF-5">
          <mxCell style="shape=umlActor;verticalLabelPosition=bottom;verticalAlign=top;html=1;outlineConnect=0;" parent="1" vertex="1">
            <mxGeometry x="40" y="170" width="30" height="60" as="geometry" />
          </mxCell>
        </object>
        <mxCell id="NZdatJUdCUIzOeaMkChF-12" style="edgeStyle=orthogonalEdgeStyle;rounded=0;orthogonalLoop=1;jettySize=auto;html=1;entryX=0.5;entryY=0.5;entryDx=0;entryDy=0;entryPerimeter=0;" parent="1" source="NZdatJUdCUIzOeaMkChF-6" target="NZdatJUdCUIzOeaMkChF-2" edge="1">
          <mxGeometry relative="1" as="geometry" />
        </mxCell>
        <object label="Colaborador" Usuário="" id="NZdatJUdCUIzOeaMkChF-6">
          <mxCell style="shape=umlActor;verticalLabelPosition=bottom;verticalAlign=top;html=1;outlineConnect=0;" parent="1" vertex="1">
            <mxGeometry x="40" y="290" width="30" height="70" as="geometry" />
          </mxCell>
        </object>
        <mxCell id="NZdatJUdCUIzOeaMkChF-11" style="edgeStyle=orthogonalEdgeStyle;rounded=0;orthogonalLoop=1;jettySize=auto;html=1;exitX=0.75;exitY=0.1;exitDx=0;exitDy=0;exitPerimeter=0;" parent="1" source="NZdatJUdCUIzOeaMkChF-7" target="NZdatJUdCUIzOeaMkChF-2" edge="1">
          <mxGeometry relative="1" as="geometry">
            <mxPoint x="150" y="130" as="targetPoint" />
          </mxGeometry>
        </mxCell>
        <object label="Social Media" Usuário="" id="NZdatJUdCUIzOeaMkChF-7">
          <mxCell style="shape=umlActor;verticalLabelPosition=bottom;verticalAlign=top;html=1;outlineConnect=0;" parent="1" vertex="1">
            <mxGeometry x="30" y="10" width="30" height="60" as="geometry" />
          </mxCell>
        </object>
        <mxCell id="NZdatJUdCUIzOeaMkChF-14" value="" style="rounded=0;whiteSpace=wrap;html=1;" parent="1" vertex="1">
          <mxGeometry x="280" y="50" width="440" height="640" as="geometry" />
        </mxCell>
        <mxCell id="NZdatJUdCUIzOeaMkChF-15" value="SysSite" style="text;strokeColor=none;fillColor=none;spacingLeft=4;spacingRight=4;overflow=hidden;rotatable=0;points=[[0,0.5],[1,0.5]];portConstraint=eastwest;fontSize=12;whiteSpace=wrap;html=1;" parent="1" vertex="1">
          <mxGeometry x="430" y="65" width="60" height="30" as="geometry" />
        </mxCell>
        <mxCell id="NZdatJUdCUIzOeaMkChF-16" value="Visualizar documentos disponiveis" style="ellipse;whiteSpace=wrap;html=1;" parent="1" vertex="1">
          <mxGeometry x="294" y="150" width="120" height="50" as="geometry" />
        </mxCell>
        <mxCell id="NZdatJUdCUIzOeaMkChF-17" value="" style="endArrow=none;html=1;rounded=0;exitX=0.5;exitY=0.5;exitDx=0;exitDy=0;exitPerimeter=0;" parent="1" source="NZdatJUdCUIzOeaMkChF-2" target="NZdatJUdCUIzOeaMkChF-16" edge="1">
          <mxGeometry width="50" height="50" relative="1" as="geometry">
            <mxPoint x="380" y="290" as="sourcePoint" />
            <mxPoint x="430" y="240" as="targetPoint" />
          </mxGeometry>
        </mxCell>
        <mxCell id="NZdatJUdCUIzOeaMkChF-31" style="edgeStyle=orthogonalEdgeStyle;rounded=0;orthogonalLoop=1;jettySize=auto;html=1;entryX=0;entryY=0.5;entryDx=0;entryDy=0;dashed=1;" parent="1" source="NZdatJUdCUIzOeaMkChF-18" target="NZdatJUdCUIzOeaMkChF-19" edge="1">
          <mxGeometry relative="1" as="geometry" />
        </mxCell>
        <mxCell id="NZdatJUdCUIzOeaMkChF-41" style="edgeStyle=orthogonalEdgeStyle;rounded=0;orthogonalLoop=1;jettySize=auto;html=1;entryX=0.5;entryY=0.5;entryDx=0;entryDy=0;entryPerimeter=0;endArrow=none;endFill=0;" parent="1" target="NZdatJUdCUIzOeaMkChF-2" edge="1">
          <mxGeometry relative="1" as="geometry">
            <mxPoint x="324" y="105" as="sourcePoint" />
            <mxPoint x="200" y="170" as="targetPoint" />
            <Array as="points">
              <mxPoint x="324" y="106" />
              <mxPoint x="200" y="106" />
              <mxPoint x="200" y="175" />
            </Array>
          </mxGeometry>
        </mxCell>
        <mxCell id="NZdatJUdCUIzOeaMkChF-73" style="edgeStyle=orthogonalEdgeStyle;rounded=0;orthogonalLoop=1;jettySize=auto;html=1;dashed=1;" parent="1" source="NZdatJUdCUIzOeaMkChF-18" target="NZdatJUdCUIzOeaMkChF-52" edge="1">
          <mxGeometry relative="1" as="geometry">
            <Array as="points">
              <mxPoint x="480" y="100" />
              <mxPoint x="480" y="264" />
            </Array>
          </mxGeometry>
        </mxCell>
        <mxCell id="NZdatJUdCUIzOeaMkChF-74" value="&amp;lt;&amp;lt;include&amp;gt;&amp;gt;" style="edgeLabel;html=1;align=center;verticalAlign=middle;resizable=0;points=[];" parent="NZdatJUdCUIzOeaMkChF-73" vertex="1" connectable="0">
          <mxGeometry x="0.1777" relative="1" as="geometry">
            <mxPoint as="offset" />
          </mxGeometry>
        </mxCell>
        <mxCell id="NZdatJUdCUIzOeaMkChF-18" value="Gerenciar usuários" style="ellipse;whiteSpace=wrap;html=1;" parent="1" vertex="1">
          <mxGeometry x="294" y="75" width="100" height="50" as="geometry" />
        </mxCell>
        <mxCell id="NZdatJUdCUIzOeaMkChF-19" value="Alterar senha" style="ellipse;whiteSpace=wrap;html=1;" parent="1" vertex="1">
          <mxGeometry x="570" y="70" width="100" height="40" as="geometry" />
        </mxCell>
        <mxCell id="NZdatJUdCUIzOeaMkChF-22" value="" style="edgeStyle=orthogonalEdgeStyle;rounded=0;orthogonalLoop=1;jettySize=auto;html=1;entryX=1;entryY=0.5;entryDx=0;entryDy=0;endArrow=none;endFill=0;" parent="1" source="NZdatJUdCUIzOeaMkChF-20" target="NZdatJUdCUIzOeaMkChF-19" edge="1">
          <mxGeometry relative="1" as="geometry">
            <mxPoint x="725" y="180" as="targetPoint" />
          </mxGeometry>
        </mxCell>
        <mxCell id="NZdatJUdCUIzOeaMkChF-26" style="edgeStyle=orthogonalEdgeStyle;rounded=0;orthogonalLoop=1;jettySize=auto;html=1;endArrow=none;endFill=0;exitX=0.5;exitY=0.5;exitDx=0;exitDy=0;exitPerimeter=0;" parent="1" source="NZdatJUdCUIzOeaMkChF-20" target="NZdatJUdCUIzOeaMkChF-25" edge="1">
          <mxGeometry relative="1" as="geometry">
            <Array as="points">
              <mxPoint x="785" y="70" />
              <mxPoint x="760" y="70" />
              <mxPoint x="760" y="200" />
            </Array>
          </mxGeometry>
        </mxCell>
        <mxCell id="NZdatJUdCUIzOeaMkChF-20" value="&amp;lt;&amp;lt;Serviço&amp;gt;&amp;gt;&lt;br&gt;E-mail&lt;br&gt;" style="shape=umlActor;verticalLabelPosition=bottom;verticalAlign=top;html=1;outlineConnect=0;" parent="1" vertex="1">
          <mxGeometry x="770" y="35" width="30" height="60" as="geometry" />
        </mxCell>
        <mxCell id="NZdatJUdCUIzOeaMkChF-25" value="Registrar &lt;br&gt;contato" style="ellipse;whiteSpace=wrap;html=1;" parent="1" vertex="1">
          <mxGeometry x="570" y="180" width="120" height="40" as="geometry" />
        </mxCell>
        <mxCell id="NZdatJUdCUIzOeaMkChF-37" style="edgeStyle=orthogonalEdgeStyle;rounded=0;orthogonalLoop=1;jettySize=auto;html=1;entryX=0;entryY=0.5;entryDx=0;entryDy=0;dashed=1;" parent="1" source="NZdatJUdCUIzOeaMkChF-35" target="NZdatJUdCUIzOeaMkChF-19" edge="1">
          <mxGeometry relative="1" as="geometry">
            <Array as="points">
              <mxPoint x="470" y="245" />
              <mxPoint x="470" y="90" />
            </Array>
          </mxGeometry>
        </mxCell>
        <mxCell id="NZdatJUdCUIzOeaMkChF-42" value="&amp;lt;&amp;lt;include&amp;gt;&amp;gt;" style="edgeLabel;html=1;align=center;verticalAlign=middle;resizable=0;points=[];" parent="NZdatJUdCUIzOeaMkChF-37" vertex="1" connectable="0">
          <mxGeometry x="0.165" y="3" relative="1" as="geometry">
            <mxPoint x="3" y="113" as="offset" />
          </mxGeometry>
        </mxCell>
        <mxCell id="NZdatJUdCUIzOeaMkChF-44" value="&amp;lt;&amp;lt;extends&amp;gt;&amp;gt;" style="edgeLabel;html=1;align=center;verticalAlign=middle;resizable=0;points=[];" parent="NZdatJUdCUIzOeaMkChF-37" vertex="1" connectable="0">
          <mxGeometry x="0.624" relative="1" as="geometry">
            <mxPoint as="offset" />
          </mxGeometry>
        </mxCell>
        <mxCell id="NZdatJUdCUIzOeaMkChF-45" style="edgeStyle=orthogonalEdgeStyle;rounded=0;orthogonalLoop=1;jettySize=auto;html=1;entryX=0.5;entryY=0.5;entryDx=0;entryDy=0;entryPerimeter=0;endArrow=none;endFill=0;" parent="1" source="NZdatJUdCUIzOeaMkChF-35" target="NZdatJUdCUIzOeaMkChF-2" edge="1">
          <mxGeometry relative="1" as="geometry">
            <Array as="points">
              <mxPoint x="200" y="245" />
              <mxPoint x="200" y="175" />
            </Array>
          </mxGeometry>
        </mxCell>
        <mxCell id="NZdatJUdCUIzOeaMkChF-35" value="Gerenciar cadastro" style="ellipse;whiteSpace=wrap;html=1;" parent="1" vertex="1">
          <mxGeometry x="294" y="220" width="130" height="50" as="geometry" />
        </mxCell>
        <mxCell id="NZdatJUdCUIzOeaMkChF-47" style="edgeStyle=orthogonalEdgeStyle;rounded=0;orthogonalLoop=1;jettySize=auto;html=1;entryX=0.5;entryY=0.5;entryDx=0;entryDy=0;entryPerimeter=0;endArrow=none;endFill=0;" parent="1" source="NZdatJUdCUIzOeaMkChF-46" target="NZdatJUdCUIzOeaMkChF-2" edge="1">
          <mxGeometry relative="1" as="geometry">
            <Array as="points">
              <mxPoint x="200" y="450" />
              <mxPoint x="200" y="175" />
            </Array>
          </mxGeometry>
        </mxCell>
        <mxCell id="NZdatJUdCUIzOeaMkChF-57" style="edgeStyle=orthogonalEdgeStyle;rounded=0;orthogonalLoop=1;jettySize=auto;html=1;entryX=0.5;entryY=0.5;entryDx=0;entryDy=0;entryPerimeter=0;endArrow=none;endFill=0;" parent="1" source="NZdatJUdCUIzOeaMkChF-46" target="NZdatJUdCUIzOeaMkChF-20" edge="1">
          <mxGeometry relative="1" as="geometry" />
        </mxCell>
        <mxCell id="NZdatJUdCUIzOeaMkChF-46" value="Configurar e-mail SMTP" style="ellipse;whiteSpace=wrap;html=1;" parent="1" vertex="1">
          <mxGeometry x="304" y="430" width="120" height="45" as="geometry" />
        </mxCell>
        <mxCell id="NZdatJUdCUIzOeaMkChF-50" style="edgeStyle=orthogonalEdgeStyle;rounded=0;orthogonalLoop=1;jettySize=auto;html=1;entryX=0.5;entryY=0.5;entryDx=0;entryDy=0;entryPerimeter=0;endArrow=none;endFill=0;" parent="1" source="NZdatJUdCUIzOeaMkChF-49" target="NZdatJUdCUIzOeaMkChF-2" edge="1">
          <mxGeometry relative="1" as="geometry">
            <Array as="points">
              <mxPoint x="200" y="400" />
              <mxPoint x="200" y="175" />
            </Array>
          </mxGeometry>
        </mxCell>
        <mxCell id="NZdatJUdCUIzOeaMkChF-49" value="Gerenciar conteúdo do site" style="ellipse;whiteSpace=wrap;html=1;" parent="1" vertex="1">
          <mxGeometry x="309" y="380" width="121" height="40" as="geometry" />
        </mxCell>
        <mxCell id="NZdatJUdCUIzOeaMkChF-53" style="edgeStyle=orthogonalEdgeStyle;rounded=0;orthogonalLoop=1;jettySize=auto;html=1;entryX=0.5;entryY=0.5;entryDx=0;entryDy=0;entryPerimeter=0;endArrow=none;endFill=0;" parent="1" source="NZdatJUdCUIzOeaMkChF-51" target="NZdatJUdCUIzOeaMkChF-2" edge="1">
          <mxGeometry relative="1" as="geometry">
            <Array as="points">
              <mxPoint x="200" y="300" />
              <mxPoint x="200" y="175" />
            </Array>
          </mxGeometry>
        </mxCell>
        <mxCell id="NZdatJUdCUIzOeaMkChF-55" style="edgeStyle=orthogonalEdgeStyle;rounded=0;orthogonalLoop=1;jettySize=auto;html=1;dashed=1;" parent="1" source="NZdatJUdCUIzOeaMkChF-51" target="NZdatJUdCUIzOeaMkChF-52" edge="1">
          <mxGeometry relative="1" as="geometry" />
        </mxCell>
        <mxCell id="NZdatJUdCUIzOeaMkChF-56" value="&amp;lt;&amp;lt;include&amp;gt;&amp;gt;" style="edgeLabel;html=1;align=center;verticalAlign=middle;resizable=0;points=[];" parent="NZdatJUdCUIzOeaMkChF-55" vertex="1" connectable="0">
          <mxGeometry x="-0.0903" y="1" relative="1" as="geometry">
            <mxPoint as="offset" />
          </mxGeometry>
        </mxCell>
        <mxCell id="NZdatJUdCUIzOeaMkChF-51" value="Carregar Folha de pagamento" style="ellipse;whiteSpace=wrap;html=1;" parent="1" vertex="1">
          <mxGeometry x="304" y="275" width="120" height="48" as="geometry" />
        </mxCell>
        <mxCell id="NZdatJUdCUIzOeaMkChF-52" value="Consultar usuários existentes" style="ellipse;whiteSpace=wrap;html=1;" parent="1" vertex="1">
          <mxGeometry x="500" y="237" width="120" height="53" as="geometry" />
        </mxCell>
        <mxCell id="NZdatJUdCUIzOeaMkChF-60" value="" style="edgeStyle=orthogonalEdgeStyle;rounded=0;orthogonalLoop=1;jettySize=auto;html=1;dashed=1;" parent="1" source="NZdatJUdCUIzOeaMkChF-58" target="NZdatJUdCUIzOeaMkChF-25" edge="1">
          <mxGeometry relative="1" as="geometry" />
        </mxCell>
        <mxCell id="NZdatJUdCUIzOeaMkChF-61" value="&amp;lt;&amp;lt;extends&amp;gt;&amp;gt;" style="edgeLabel;html=1;align=center;verticalAlign=middle;resizable=0;points=[];" parent="NZdatJUdCUIzOeaMkChF-60" vertex="1" connectable="0">
          <mxGeometry x="-0.2167" y="2" relative="1" as="geometry">
            <mxPoint as="offset" />
          </mxGeometry>
        </mxCell>
        <mxCell id="NZdatJUdCUIzOeaMkChF-68" style="edgeStyle=orthogonalEdgeStyle;rounded=0;orthogonalLoop=1;jettySize=auto;html=1;endArrow=none;endFill=0;" parent="1" target="NZdatJUdCUIzOeaMkChF-2" edge="1">
          <mxGeometry relative="1" as="geometry">
            <mxPoint x="635" y="372" as="sourcePoint" />
            <mxPoint x="170" y="207" as="targetPoint" />
            <Array as="points">
              <mxPoint x="635" y="373" />
              <mxPoint x="200" y="373" />
              <mxPoint x="200" y="175" />
            </Array>
          </mxGeometry>
        </mxCell>
        <mxCell id="NZdatJUdCUIzOeaMkChF-58" value="Visitar o site" style="ellipse;whiteSpace=wrap;html=1;" parent="1" vertex="1">
          <mxGeometry x="620" y="350" width="90" height="40" as="geometry" />
        </mxCell>
        <mxCell id="NZdatJUdCUIzOeaMkChF-65" style="edgeStyle=orthogonalEdgeStyle;rounded=0;orthogonalLoop=1;jettySize=auto;html=1;entryX=0.5;entryY=0.5;entryDx=0;entryDy=0;entryPerimeter=0;" parent="1" source="NZdatJUdCUIzOeaMkChF-62" target="NZdatJUdCUIzOeaMkChF-2" edge="1">
          <mxGeometry relative="1" as="geometry">
            <Array as="points">
              <mxPoint x="155" y="290" />
              <mxPoint x="155" y="290" />
            </Array>
          </mxGeometry>
        </mxCell>
        <mxCell id="NZdatJUdCUIzOeaMkChF-62" value="Visitante" style="shape=umlActor;verticalLabelPosition=bottom;verticalAlign=top;html=1;outlineConnect=0;" parent="1" vertex="1">
          <mxGeometry x="140" y="390" width="30" height="60" as="geometry" />
        </mxCell>
        <mxCell id="NZdatJUdCUIzOeaMkChF-69" style="edgeStyle=orthogonalEdgeStyle;rounded=0;orthogonalLoop=1;jettySize=auto;html=1;entryX=0.5;entryY=0.5;entryDx=0;entryDy=0;entryPerimeter=0;endArrow=none;endFill=0;" parent="1" source="NZdatJUdCUIzOeaMkChF-67" target="NZdatJUdCUIzOeaMkChF-2" edge="1">
          <mxGeometry relative="1" as="geometry">
            <Array as="points">
              <mxPoint x="200" y="353" />
              <mxPoint x="200" y="175" />
            </Array>
          </mxGeometry>
        </mxCell>
        <mxCell id="NZdatJUdCUIzOeaMkChF-71" style="edgeStyle=orthogonalEdgeStyle;rounded=0;orthogonalLoop=1;jettySize=auto;html=1;dashed=1;" parent="1" source="NZdatJUdCUIzOeaMkChF-67" target="NZdatJUdCUIzOeaMkChF-70" edge="1">
          <mxGeometry relative="1" as="geometry" />
        </mxCell>
        <mxCell id="NZdatJUdCUIzOeaMkChF-72" value="&amp;lt;&amp;lt;include&amp;gt;&amp;gt;" style="edgeLabel;html=1;align=center;verticalAlign=middle;resizable=0;points=[];" parent="NZdatJUdCUIzOeaMkChF-71" vertex="1" connectable="0">
          <mxGeometry x="-0.0238" y="-4" relative="1" as="geometry">
            <mxPoint as="offset" />
          </mxGeometry>
        </mxCell>
        <mxCell id="NZdatJUdCUIzOeaMkChF-67" value="Ativar/Desativar registros" style="ellipse;whiteSpace=wrap;html=1;" parent="1" vertex="1">
          <mxGeometry x="304" y="333" width="120" height="40" as="geometry" />
        </mxCell>
        <mxCell id="NZdatJUdCUIzOeaMkChF-70" value="Consultar registros existentes" style="ellipse;whiteSpace=wrap;html=1;" parent="1" vertex="1">
          <mxGeometry x="474" y="299.25" width="120" height="47.5" as="geometry" />
        </mxCell>
        <mxCell id="NZdatJUdCUIzOeaMkChF-77" style="edgeStyle=orthogonalEdgeStyle;rounded=0;orthogonalLoop=1;jettySize=auto;html=1;dashed=1;" parent="1" source="NZdatJUdCUIzOeaMkChF-75" target="NZdatJUdCUIzOeaMkChF-76" edge="1">
          <mxGeometry relative="1" as="geometry" />
        </mxCell>
        <mxCell id="NZdatJUdCUIzOeaMkChF-79" value="&amp;lt;&amp;lt;extends&amp;gt;&amp;gt;" style="edgeLabel;html=1;align=center;verticalAlign=middle;resizable=0;points=[];" parent="NZdatJUdCUIzOeaMkChF-77" vertex="1" connectable="0">
          <mxGeometry x="0.2097" y="4" relative="1" as="geometry">
            <mxPoint as="offset" />
          </mxGeometry>
        </mxCell>
        <mxCell id="NZdatJUdCUIzOeaMkChF-78" style="edgeStyle=orthogonalEdgeStyle;rounded=0;orthogonalLoop=1;jettySize=auto;html=1;endArrow=none;endFill=0;" parent="1" source="NZdatJUdCUIzOeaMkChF-75" target="NZdatJUdCUIzOeaMkChF-2" edge="1">
          <mxGeometry relative="1" as="geometry">
            <Array as="points">
              <mxPoint x="200" y="498" />
              <mxPoint x="200" y="175" />
            </Array>
          </mxGeometry>
        </mxCell>
        <mxCell id="NZdatJUdCUIzOeaMkChF-75" value="Acessar sistema" style="ellipse;whiteSpace=wrap;html=1;" parent="1" vertex="1">
          <mxGeometry x="340" y="480" width="101" height="35" as="geometry" />
        </mxCell>
        <mxCell id="NZdatJUdCUIzOeaMkChF-76" value="Alterar a senha primeiro acesso administrador" style="ellipse;whiteSpace=wrap;html=1;" parent="1" vertex="1">
          <mxGeometry x="570" y="458.75" width="120" height="61.25" as="geometry" />
        </mxCell>
        <mxCell id="R8VgSRiTnh66kHiYbCdu-2" style="edgeStyle=orthogonalEdgeStyle;rounded=0;orthogonalLoop=1;jettySize=auto;html=1;endArrow=none;endFill=0;entryX=0.5;entryY=0.5;entryDx=0;entryDy=0;entryPerimeter=0;" parent="1" source="R8VgSRiTnh66kHiYbCdu-3" target="NZdatJUdCUIzOeaMkChF-2" edge="1">
          <mxGeometry relative="1" as="geometry">
            <Array as="points">
              <mxPoint x="200" y="543" />
              <mxPoint x="200" y="175" />
            </Array>
            <mxPoint x="170" y="220" as="targetPoint" />
          </mxGeometry>
        </mxCell>
        <mxCell id="R8VgSRiTnh66kHiYbCdu-3" value="Gerenciar perfil de acesso" style="ellipse;whiteSpace=wrap;html=1;" parent="1" vertex="1">
          <mxGeometry x="340" y="520" width="120" height="50" as="geometry" />
        </mxCell>
        <mxCell id="R8VgSRiTnh66kHiYbCdu-6" style="edgeStyle=orthogonalEdgeStyle;rounded=0;orthogonalLoop=1;jettySize=auto;html=1;dashed=1;exitX=1;exitY=0.5;exitDx=0;exitDy=0;" parent="1" source="R8VgSRiTnh66kHiYbCdu-3" target="R8VgSRiTnh66kHiYbCdu-8" edge="1">
          <mxGeometry relative="1" as="geometry">
            <Array as="points">
              <mxPoint x="460" y="554" />
            </Array>
            <mxPoint x="484" y="390" as="sourcePoint" />
          </mxGeometry>
        </mxCell>
        <mxCell id="R8VgSRiTnh66kHiYbCdu-7" value="&amp;lt;&amp;lt;include&amp;gt;&amp;gt;" style="edgeLabel;html=1;align=center;verticalAlign=middle;resizable=0;points=[];" parent="R8VgSRiTnh66kHiYbCdu-6" vertex="1" connectable="0">
          <mxGeometry x="0.1777" relative="1" as="geometry">
            <mxPoint as="offset" />
          </mxGeometry>
        </mxCell>
        <mxCell id="R8VgSRiTnh66kHiYbCdu-8" value="Consultar perfis existentes" style="ellipse;whiteSpace=wrap;html=1;" parent="1" vertex="1">
          <mxGeometry x="590" y="527" width="120" height="53" as="geometry" />
        </mxCell>
        <mxCell id="R8VgSRiTnh66kHiYbCdu-9" style="edgeStyle=orthogonalEdgeStyle;rounded=0;orthogonalLoop=1;jettySize=auto;html=1;entryX=0.5;entryY=0.5;entryDx=0;entryDy=0;entryPerimeter=0;endArrow=none;endFill=0;" parent="1" source="R8VgSRiTnh66kHiYbCdu-10" edge="1">
          <mxGeometry relative="1" as="geometry">
            <Array as="points">
              <mxPoint x="151.5" y="422.5" />
            </Array>
            <mxPoint x="151.5" y="187.5" as="targetPoint" />
          </mxGeometry>
        </mxCell>
        <mxCell id="R8VgSRiTnh66kHiYbCdu-10" value="Gerenciar parâmetros&amp;nbsp; de configuração do sistema" style="ellipse;whiteSpace=wrap;html=1;" parent="1" vertex="1">
          <mxGeometry x="473" y="402.5" width="187" height="40" as="geometry" />
        </mxCell>
        <mxCell id="R8VgSRiTnh66kHiYbCdu-11" style="edgeStyle=orthogonalEdgeStyle;rounded=0;orthogonalLoop=1;jettySize=auto;html=1;endArrow=none;endFill=0;entryX=0.5;entryY=0.5;entryDx=0;entryDy=0;entryPerimeter=0;" parent="1" source="R8VgSRiTnh66kHiYbCdu-12" target="NZdatJUdCUIzOeaMkChF-2" edge="1">
          <mxGeometry relative="1" as="geometry">
            <Array as="points">
              <mxPoint x="200" y="588" />
              <mxPoint x="200" y="175" />
            </Array>
            <mxPoint x="155" y="220" as="targetPoint" />
          </mxGeometry>
        </mxCell>
        <mxCell id="R8VgSRiTnh66kHiYbCdu-12" value="Consultar log das operações realizadas&lt;div&gt;&lt;br&gt;&lt;/div&gt;" style="ellipse;whiteSpace=wrap;html=1;" parent="1" vertex="1">
          <mxGeometry x="340" y="570" width="140" height="50" as="geometry" />
        </mxCell>
        <mxCell id="R8VgSRiTnh66kHiYbCdu-13" style="edgeStyle=orthogonalEdgeStyle;rounded=0;orthogonalLoop=1;jettySize=auto;html=1;endArrow=none;endFill=0;entryX=0.5;entryY=0.5;entryDx=0;entryDy=0;entryPerimeter=0;exitX=0;exitY=0.5;exitDx=0;exitDy=0;" parent="1" source="R8VgSRiTnh66kHiYbCdu-14" target="NZdatJUdCUIzOeaMkChF-2" edge="1">
          <mxGeometry relative="1" as="geometry">
            <Array as="points">
              <mxPoint x="150" y="655" />
              <mxPoint x="150" y="215" />
              <mxPoint x="155" y="215" />
            </Array>
            <mxPoint x="255" y="215" as="targetPoint" />
          </mxGeometry>
        </mxCell>
        <mxCell id="l5aOJLFdd8MkTqtItoaF-2" value="" style="edgeStyle=orthogonalEdgeStyle;rounded=0;orthogonalLoop=1;jettySize=auto;html=1;dashed=1;" edge="1" parent="1" source="R8VgSRiTnh66kHiYbCdu-14" target="l5aOJLFdd8MkTqtItoaF-1">
          <mxGeometry relative="1" as="geometry" />
        </mxCell>
        <mxCell id="l5aOJLFdd8MkTqtItoaF-3" value="&amp;lt;&amp;lt;extends&amp;gt;&amp;gt;&lt;div&gt;&lt;br&gt;&lt;/div&gt;" style="edgeLabel;html=1;align=center;verticalAlign=middle;resizable=0;points=[];" vertex="1" connectable="0" parent="l5aOJLFdd8MkTqtItoaF-2">
          <mxGeometry x="-0.08" y="-3" relative="1" as="geometry">
            <mxPoint as="offset" />
          </mxGeometry>
        </mxCell>
        <mxCell id="R8VgSRiTnh66kHiYbCdu-14" value="&lt;div&gt;Gerenciar fuincionário&lt;/div&gt;" style="ellipse;whiteSpace=wrap;html=1;" parent="1" vertex="1">
          <mxGeometry x="320.5" y="630" width="140" height="50" as="geometry" />
        </mxCell>
        <mxCell id="l5aOJLFdd8MkTqtItoaF-1" value="Associar funcionário a um usuário" style="ellipse;whiteSpace=wrap;html=1;" vertex="1" parent="1">
          <mxGeometry x="570" y="630" width="140" height="50" as="geometry" />
        </mxCell>
      </root>
    </mxGraphModel>
  </diagram>
</mxfile>
